<?xml version="1.0" standalone="no"?>
<!DOCTYPE svg PUBLIC "-//W3C//DTD SVG 20010904//EN"
 "http://www.w3.org/TR/2001/REC-SVG-20010904/DTD/svg10.dtd">
<svg version="1.0" xmlns="http://www.w3.org/2000/svg"
 width="1500.000000pt" height="1500.000000pt" viewBox="0 0 1500.000000 1500.000000"
 preserveAspectRatio="xMidYMid meet">

<g transform="translate(0.000000,1500.000000) scale(0.100000,-0.100000)"
fill="#fff" stroke="none">
<path d="M7400 14954 c-98 -26 -181 -88 -236 -176 -57 -90 -54 85 -54 -2705 0
-1693 -3 -2573 -10 -2573 -5 0 -528 517 -1161 1149 -837 835 -1166 1157 -1203
1178 -48 26 -58 28 -171 28 -107 0 -125 -3 -165 -24 -70 -37 -118 -80 -160
-144 -50 -74 -62 -120 -62 -224 1 -71 5 -92 32 -150 31 -65 107 -143 1529
-1568 823 -825 1518 -1516 1544 -1535 36 -25 70 -39 133 -51 76 -16 90 -16
156 -2 40 8 89 22 108 30 22 10 593 574 1561 1542 1200 1201 1530 1536 1548
1574 49 103 46 259 -6 353 -37 66 -108 136 -174 171 -51 26 -62 28 -174 28
-113 0 -123 -2 -171 -28 -36 -20 -368 -346 -1200 -1178 -632 -632 -1152 -1149
-1156 -1149 -5 0 -8 1133 -8 2519 0 2791 3 2639 -63 2750 -60 100 -158 170
-266 191 -70 13 -104 12 -171 -6z"/>
<path d="M3420 10820 c-88 -21 -194 -107 -243 -199 -33 -60 -48 -161 -37 -242
19 -134 -37 -73 1212 -1324 631 -633 1148 -1154 1148 -1158 0 -4 -1160 -7
-2579 -7 -2860 0 -2612 6 -2719 -67 -121 -83 -186 -233 -164 -376 25 -166 149
-297 306 -326 42 -8 819 -11 2608 -11 1401 0 2548 -3 2548 -7 0 -4 -517 -525
-1148 -1158 -878 -880 -1154 -1162 -1175 -1201 -52 -99 -54 -252 -5 -351 30
-62 120 -153 180 -182 104 -50 241 -50 347 0 36 17 383 358 1559 1533 833 831
1524 1527 1536 1546 58 89 72 226 36 345 l-22 70 -1506 1510 c-933 935 -1530
1526 -1567 1551 -33 23 -81 46 -107 53 -53 13 -156 13 -208 1z"/>
<path d="M11365 10816 c-22 -6 -56 -19 -75 -30 -41 -21 -3050 -3023 -3085
-3077 -59 -91 -69 -243 -25 -364 22 -58 63 -101 1529 -1568 828 -829 1529
-1523 1556 -1541 72 -47 118 -60 215 -60 119 1 183 27 265 108 34 33 72 80 83
103 51 99 48 268 -5 362 -17 30 -436 457 -1175 1196 -631 633 -1148 1154
-1148 1158 0 4 1146 7 2547 7 1837 0 2565 3 2612 11 160 27 292 175 308 343
16 177 -88 343 -255 406 -52 20 -80 20 -2632 20 -1419 0 -2580 3 -2580 7 0 4
517 525 1149 1158 1067 1069 1151 1155 1179 1215 37 79 47 153 32 246 -22 134
-153 276 -281 303 -63 14 -162 12 -214 -3z"/>
<path d="M7384 6832 c-34 -10 -83 -35 -110 -55 -27 -20 -720 -708 -1540 -1529
-1626 -1628 -1534 -1529 -1554 -1667 -11 -77 2 -167 32 -228 30 -62 120 -153
180 -182 102 -49 243 -50 342 -2 28 14 399 378 1200 1180 638 638 1163 1158
1168 1155 4 -3 8 -1146 8 -2540 0 -1787 3 -2556 11 -2607 28 -186 194 -327
384 -327 110 0 219 51 295 137 55 62 81 122 91 206 4 40 8 1210 9 2601 0 1391
1 2531 3 2532 2 2 525 -519 1162 -1157 799 -798 1173 -1166 1201 -1180 99 -47
251 -46 347 2 53 27 148 123 175 176 48 93 48 251 1 350 -18 38 -350 375
-1553 1580 -1495 1496 -1532 1532 -1586 1548 -83 26 -193 28 -266 7z"/>
</g>
</svg>
